<?xml version="1.0" encoding="utf-8"?>
<!-- Generator: Adobe Illustrator 28.1.0, SVG Export Plug-In . SVG Version: 6.00 Build 0)  -->
<svg version="1.1" id="Capa_1" xmlns="http://www.w3.org/2000/svg" xmlns:xlink="http://www.w3.org/1999/xlink" x="0px" y="0px"
	 viewBox="0 0 38.1 38.1" style="enable-background:new 0 0 38.1 38.1;" xml:space="preserve">
<style type="text/css">
	.st0{fill:#FC8AB7;}
	.st1{fill:#FFFFFF;}
</style>
<path class="st0" d="M19,38.1L19,38.1c-10.5,0-19-8.5-19-19l0,0C0,8.5,8.5,0,19,0l0,0c10.5,0,19,8.5,19,19l0,0
	C38.1,29.5,29.5,38.1,19,38.1z"/>
<path class="st1" d="M19,6.9C12.3,6.9,6.9,12.3,6.9,19S12.3,31.2,19,31.2S31.2,25.7,31.2,19S25.7,6.9,19,6.9z M19,9
	c2.3,0,4.4,0.8,6.1,2.1c-1.2,1.6-2.9,2.8-5,3.7c-1-1.9-2.2-3.7-3.5-5.5C17.4,9.1,18.2,9,19,9z M14.5,10.1c1.4,1.8,2.5,3.6,3.6,5.4
	c-2.5,0.7-5.4,1.1-8.8,1.1C10,13.8,11.9,11.4,14.5,10.1z M9,19c0-0.1,0-0.2,0-0.3c3.9,0,7.2-0.5,10.1-1.3c0.2,0.5,0.5,1,0.7,1.5
	c-3.4,1.1-6.2,3.3-8.4,6.5C9.9,23.7,9,21.5,9,19z M19,29c-2.3,0-4.4-0.8-6.1-2.1c2-3.1,4.5-5.2,7.7-6.1c0.9,2.5,1.6,5,2.1,7.5
	C21.5,28.8,20.3,29,19,29z M24.6,27.4c-0.4-2.4-1.1-4.7-1.9-7c1.9-0.3,4-0.2,6.3,0.2C28.5,23.4,26.9,25.8,24.6,27.4z M21.8,18.4
	c-0.2-0.6-0.5-1.1-0.8-1.7c2.3-1,4.2-2.4,5.6-4.1c1.4,1.6,2.2,3.7,2.4,5.9C26.4,18,24,18,21.8,18.4z"/>
</svg>
