<?xml version="1.0" encoding="utf-8"?>
<!-- Generator: Adobe Illustrator 28.1.0, SVG Export Plug-In . SVG Version: 6.00 Build 0)  -->
<svg version="1.1" id="Capa_1" xmlns="http://www.w3.org/2000/svg" xmlns:xlink="http://www.w3.org/1999/xlink" x="0px" y="0px"
	 viewBox="0 0 38.1 38.1" style="enable-background:new 0 0 38.1 38.1;" xml:space="preserve">
<style type="text/css">
	.st0{fill:#FC8AB7;}
	.st1{fill:#FFFFFF;}
</style>
<path class="st0" d="M19,38.1L19,38.1c-10.5,0-19-8.5-19-19l0,0C0,8.5,8.5,0,19,0l0,0c10.5,0,19,8.5,19,19l0,0
	C38.1,29.5,29.5,38.1,19,38.1z"/>
<g>
	<g>
		<rect x="10.4" y="14.8" class="st1" width="3.9" height="12.7"/>
		<path class="st1" d="M12.4,13.1c1.3,0,2.3-1.1,2.3-2.3s-1-2.4-2.3-2.4S10,9.5,10,10.8S11.1,13.1,12.4,13.1z"/>
	</g>
	<path class="st1" d="M20.6,20.8c0-1.8,0.8-2.9,2.4-2.9c1.5,0,2.1,1,2.1,2.9v6.7H29v-8.1c0-3.4-1.9-5.1-4.6-5.1s-3.8,2.1-3.8,2.1
		v-1.7h-3.8v12.7h3.8V20.8L20.6,20.8z"/>
</g>
</svg>
